<?xml version="1.0" standalone="no"?>
<!DOCTYPE svg PUBLIC "-//W3C//DTD SVG 20010904//EN"
 "http://www.w3.org/TR/2001/REC-SVG-20010904/DTD/svg10.dtd">
<svg version="1.0" xmlns="http://www.w3.org/2000/svg"
 width="437.000000pt" height="134.000000pt" viewBox="0 0 437.000000 134.000000"
 preserveAspectRatio="xMidYMid meet">

<g transform="translate(0.000000,134.000000) scale(0.100000,-0.100000)"
fill="#000000" stroke="none">
<path fill="#ED1C24" d="M402 1008 c-14 -14 -17 -564 -3 -587 7 -11 37 -13 143 -9 120 3 140
6 184 29 67 34 94 77 94 147 0 65 -26 114 -70 134 -17 7 -30 15 -30 18 0 3 13
18 30 33 35 34 47 85 31 137 -15 50 -58 86 -121 99 -70 15 -243 14 -258 -1z
m243 -103 c33 -32 33 -78 0 -110 -20 -21 -34 -25 -82 -25 l-58 0 2 67 c1 38 2
74 2 81 1 8 19 12 56 12 46 0 60 -4 80 -25z m24 -251 c42 -35 44 -93 5 -129
-23 -22 -36 -25 -98 -25 l-71 0 3 90 3 90 64 0 c54 0 68 -4 94 -26z"/>
<path fill="#ED1C24" d="M943 1013 c-10 -3 -13 -73 -13 -298 0 -321 -3 -305 60 -305 59 0 60
1 60 136 l0 124 115 0 115 0 0 -124 c0 -135 1 -136 60 -136 63 0 60 -16 60
305 0 321 3 305 -60 305 -59 0 -60 -2 -60 -126 l0 -114 -115 0 -115 0 0 114
c0 95 -3 115 -16 120 -18 7 -73 7 -91 -1z"/>
<path d="M1545 1008 c-3 -7 -4 -144 -3 -303 l3 -290 160 0 160 0 0 45 0 45
-102 3 -103 3 -2 252 -3 252 -53 3 c-36 2 -54 -1 -57 -10z"/>
<path d="M2095 1010 c-22 -35 -204 -585 -197 -592 5 -5 31 -8 58 -6 l49 3 24
68 24 68 115 -3 115 -3 22 -65 22 -65 59 0 c57 0 59 1 58 25 -1 14 -29 104
-63 200 -34 96 -75 212 -91 256 -45 129 -40 124 -120 124 -38 0 -72 -4 -75
-10z m115 -236 c22 -65 40 -122 40 -126 0 -4 -39 -8 -86 -8 -84 0 -85 0 -79
23 29 95 78 237 81 234 3 -2 22 -57 44 -123z"/>
<path d="M2541 1006 c-8 -9 -11 -97 -9 -302 l3 -289 29 -3 c15 -2 39 -1 53 3
l24 6 -1 222 c-1 122 -1 226 -1 230 1 5 50 -90 110 -211 64 -129 119 -227 133
-236 25 -18 104 -21 128 -6 13 8 15 50 12 297 -2 158 -6 291 -8 295 -7 10 -76
10 -92 0 -9 -7 -12 -57 -10 -214 2 -114 2 -206 1 -205 -1 1 -44 85 -96 187
-119 233 -126 240 -205 240 -38 0 -64 -5 -71 -14z"/>
<path d="M3165 1007 c-3 -7 -4 -143 -3 -302 l3 -290 145 0 c130 1 151 3 197
24 66 29 115 83 138 151 24 74 18 228 -13 286 -31 60 -92 109 -161 128 -73 20
-299 23 -306 3z m293 -114 c68 -50 96 -145 72 -244 -23 -96 -84 -139 -197
-139 l-53 0 0 206 0 207 76 -5 c54 -4 83 -11 102 -25z"/>
</g>
</svg>
